<?xml version="1.0" ?>
<!DOCTYPE svg  PUBLIC '-//W3C//DTD SVG 1.1//EN'  'http://www.w3.org/Graphics/SVG/1.1/DTD/svg11.dtd'>
<!-- Uploaded to: SVG Repo, www.svgrepo.com, Generator: SVG Repo Mixer Tools -->
<svg width="800px" height="800px" viewBox="0 0 32 32" enable-background="new 0 0 32 32" version="1.1" xml:space="preserve" xmlns="http://www.w3.org/2000/svg" xmlns:xlink="http://www.w3.org/1999/xlink">
<g id="Layer_2"/>
<g id="Layer_3"/>
<g id="Layer_4"/>
<g id="Layer_5"/>
<g id="Layer_6"/>
<g id="Layer_7"/>
<g id="Layer_8"/>
<g id="Layer_9"/>
<g id="Layer_10"/>
<g id="Layer_11"/>
<g id="Layer_12"/>
<g id="Layer_13"/>
<g id="Layer_14"/>
<g id="Layer_15"/>
<g id="Layer_16"/>
<g id="Layer_17"/>
<g id="Layer_18">
<g>
<path d="M10.55,5.17c-0.04-0.03-0.09-0.05-0.13-0.07c0.03,0,0.06,0.02,0.08,0.03S10.54,5.15,10.55,5.17z" fill="#16BCD4"/>
</g>
<path d="M22.52,5.15c-0.05-0.03-0.11-0.06-0.17-0.08c0.03,0,0.06,0.02,0.09,0.03C22.47,5.11,22.5,5.13,22.52,5.15z" fill="#16BCD4"/>
<path d="M30.97,25.68l-1.98-15.8c-0.03-0.29-0.19-0.55-0.44-0.71l-5.89-3.92c-0.04-0.04-0.09-0.07-0.14-0.1   c-0.05-0.03-0.11-0.06-0.17-0.08c-0.02-0.02-0.05-0.03-0.09-0.04c-0.03,0-0.06-0.01-0.09-0.01C22.12,5,22.06,5,22,5   c-0.08,0-0.17,0.01-0.26,0.04c-0.05,0.01-0.11,0.03-0.16,0.06c-0.03,0-0.06,0.02-0.08,0.03s-0.04,0.02-0.05,0.04l-0.02,0.01L16,8.8   l-5.43-3.62l-0.02-0.01c-0.04-0.03-0.09-0.05-0.13-0.07c-0.05-0.03-0.11-0.05-0.16-0.06C10.17,5.01,10.08,5,10,5   C9.97,5,9.94,5,9.92,5.01C9.89,5,9.86,5.01,9.84,5.02c-0.03,0-0.07,0.01-0.1,0.01C9.7,5.04,9.67,5.05,9.65,5.07H9.64   c-0.03,0-0.05,0.02-0.08,0.03C9.53,5.11,9.5,5.13,9.48,5.15c-0.05,0.03-0.1,0.06-0.14,0.1L3.45,9.17C3.2,9.33,3.04,9.59,3.01,9.88   l-2,16c-0.05,0.37,0.12,0.74,0.44,0.95C1.61,26.94,1.81,27,2,27c0.17,0,0.34-0.04,0.5-0.13L9,23.16l0.09,0.05l6.41,3.66   c0.03,0.02,0.06,0.03,0.1,0.04c0.05,0.03,0.11,0.05,0.1801,0.06C15.85,26.99,15.93,27,16,27s0.14-0.01,0.2-0.02   c0.06-0.02,0.12-0.04,0.18-0.06c0.01,0,0.01-0.01,0.02-0.01c0.04-0.01,0.0699-0.02,0.1-0.04l6.41-3.66V23.1L23,23.16l6.5,3.71   C29.66,26.96,29.83,27,30,27c0.01,0,0.02,0,0.02,0c0.55,0,1-0.45,1-1C31.02,25.89,31,25.78,30.97,25.68z" fill="#16BCD4"/>
<g>
<path d="M31.02,26c0,0.55-0.45,1-1,1c0,0-0.01,0-0.02,0c-0.17,0-0.34-0.04-0.5-0.13L23,23.16l-0.09-0.06L22,5    c0.06,0,0.12,0,0.17,0.02c0.03,0,0.06,0.01,0.09,0.01c0.04,0.01,0.07,0.02,0.09,0.04c0.06,0.02,0.12,0.05,0.17,0.08    c0.05,0.03,0.1,0.06,0.14,0.1l5.89,3.92c0.25,0.16,0.41,0.42,0.44,0.71l1.98,15.8C31,25.78,31.02,25.89,31.02,26z" fill="#2197F3"/>
<path d="M21.58,5.1c-0.04,0.02-0.09,0.04-0.13,0.07c0.01-0.02,0.03-0.03,0.05-0.04S21.55,5.1,21.58,5.1z" fill="#2197F3"/>
</g>
<path d="M16,8.8V27c-0.07,0-0.15-0.01-0.22-0.03c-0.07-0.01-0.13-0.03-0.1801-0.06c-0.04-0.01-0.0699-0.02-0.1-0.04   l-6.41-3.66V23.1L10,5c0.08,0,0.17,0.01,0.26,0.04c0.05,0.01,0.11,0.03,0.16,0.06c0.04,0.02,0.09,0.04,0.13,0.07l0.02,0.01L16,8.8z   " fill="#2197F3"/>
<polygon fill="#16BCD4" points="23,23.16 22.91,23.21 22.91,23.1  "/>
</g>
<g id="Layer_19"/>
<g id="Maps_11_"/>
<g id="Maps_10_"/>
<g id="Maps_9_"/>
<g id="Maps_8_"/>
<g id="Maps_7_"/>
<g id="Maps_6_"/>
<g id="Maps_5_"/>
<g id="Maps_4_"/>
<g id="Maps_3_"/>
<g id="Maps_2_"/>
<g id="Maps_1_"/>
<g id="Maps"/>
</svg>